<?xml version="1.0" standalone="no"?>
<!DOCTYPE svg PUBLIC "-//W3C//DTD SVG 20010904//EN"
 "http://www.w3.org/TR/2001/REC-SVG-20010904/DTD/svg10.dtd">
<svg version="1.0" xmlns="http://www.w3.org/2000/svg"
 width="500.000000pt" height="500.000000pt" viewBox="0 0 500.000000 500.000000"
 preserveAspectRatio="xMidYMid meet">
<metadata>
Created by potrace 1.11, written by Peter Selinger 2001-2013
</metadata>
<g transform="translate(0.000000,500.000000) scale(0.100000,-0.100000)"
fill="#000000" stroke="none">
<path d="M802 4688 c3 -7 112 -299 243 -648 305 -818 387 -1038 773 -2070 176
-470 350 -936 387 -1035 36 -99 72 -196 79 -215 l14 -35 88 0 c79 -1 90 1 101
20 7 11 12 26 13 33 0 7 9 31 19 55 11 23 31 74 44 112 14 39 142 383 285 765
143 382 337 902 431 1155 94 253 176 469 180 480 5 11 57 151 116 310 59 160
110 299 115 310 8 18 182 482 216 575 7 19 26 72 43 118 l31 83 -83 -3 -82 -3
-67 -180 c-38 -99 -81 -216 -97 -260 -15 -44 -121 -329 -235 -633 -113 -304
-206 -555 -206 -558 0 -3 -6 -20 -14 -37 -8 -18 -53 -135 -99 -262 -186 -502
-498 -1341 -506 -1360 -32 -71 -193 -531 -194 -553 -1 -26 -15 6 -47 103 -18
55 -240 656 -493 1335 -252 679 -472 1269 -487 1310 -15 41 -96 260 -180 485
-84 226 -169 455 -190 510 l-37 100 -83 3 c-64 2 -81 0 -78 -10z"/>
</g>
</svg>
